<svg xmlns="http://www.w3.org/2000/svg" viewBox="0 0 512 512">
  <defs>
    <linearGradient id="grad" x1="0%" y1="0%" x2="100%" y2="100%">
      <stop offset="0%" style="stop-color:#3b82f6;stop-opacity:1" />
      <stop offset="100%" style="stop-color:#1d4ed8;stop-opacity:1" />
    </linearGradient>
  </defs>
  <!-- Background with rounded corners -->
  <rect width="512" height="512" rx="112" fill="url(#grad)"/>
  
  <!-- Book Shape -->
  <path d="M140 160c0-22 18-40 40-40h152c22 0 40 18 40 40v210c0 22-18 40-40 40H180c-22 0-40-18-40-40V160z" fill="white"/>
  
  <!-- Bookmark Ribbon -->
  <path d="M300 120v100l-20-15-20 15V120z" fill="#ef4444"/>
  
  <!-- Lines representing text -->
  <rect x="170" y="240" width="100" height="12" rx="6" fill="#e5e7eb"/>
  <rect x="170" y="270" width="130" height="12" rx="6" fill="#e5e7eb"/>
  <rect x="170" y="300" width="80" height="12" rx="6" fill="#e5e7eb"/>
</svg>
